<svg width="20" height="20" viewBox="0 0 20 20" fill="none" xmlns="http://www.w3.org/2000/svg">
<g clip-path="url(#clip0_35_164)">
<path d="M16.9063 4.22655C16.5073 3.82734 16.0335 3.51065 15.512 3.29459C14.9906 3.07852 14.4317 2.96732 13.8672 2.96732C13.3028 2.96732 12.7439 3.07852 12.2224 3.29459C11.701 3.51065 11.2272 3.82734 10.8282 4.22655L10 5.05468L9.17191 4.22655C8.3659 3.42055 7.27271 2.96773 6.13284 2.96773C4.99298 2.96773 3.89979 3.42055 3.09378 4.22655C2.28777 5.03256 1.83496 6.12575 1.83496 7.26562C1.83496 8.40549 2.28777 9.49867 3.09378 10.3047L3.92191 11.1328L10 17.2109L16.0782 11.1328L16.9063 10.3047C17.3055 9.90565 17.6222 9.43188 17.8382 8.91043C18.0543 8.38897 18.1655 7.83006 18.1655 7.26562C18.1655 6.70117 18.0543 6.14226 17.8382 5.62081C17.6222 5.09936 17.3055 4.62558 16.9063 4.22655V4.22655Z" stroke="#FF2525" stroke-width="2" stroke-linecap="round" stroke-linejoin="round"/>
</g>
<defs>
<clipPath id="clip0_35_164">
<rect width="18.75" height="18.75" fill="white" transform="translate(0.625 0.625)"/>
</clipPath>
</defs>
</svg>
